<?xml version="1.0" encoding="UTF-8"?>
<svg version="1.1" xmlns="http://www.w3.org/2000/svg" width="512" height="512">
<path d="M0 0 C1.92850557 -0.00576539 3.85700563 -0.01370932 5.78549427 -0.02363622 C11.07021052 -0.04447499 16.35447428 -0.03420772 21.63919199 -0.01870513 C27.34411239 -0.00738356 33.04895547 -0.02485831 38.75386047 -0.03860474 C49.92368658 -0.06083254 61.09334466 -0.05603804 72.26317734 -0.04154153 C81.34087022 -0.0302481 90.41851602 -0.02871886 99.49621391 -0.03416061 C100.78835421 -0.03492678 102.0804945 -0.03569294 103.41179056 -0.03648233 C106.03676265 -0.03808096 108.66173473 -0.03970202 111.2867068 -0.04134528 C135.19654531 -0.05519495 159.10629307 -0.04083464 183.01611697 -0.0146323 C204.83590255 0.00909778 226.65554223 0.00696941 248.47532654 -0.01693726 C273.00037854 -0.04371823 297.52534237 -0.05423082 322.05040783 -0.03887594 C324.66539982 -0.03728319 327.28039182 -0.03571134 329.89538383 -0.03416061 C331.18200704 -0.03338924 332.46863025 -0.03261786 333.79424204 -0.03182311 C342.86167366 -0.02750571 351.92905352 -0.03479349 360.99647713 -0.04655838 C372.04565176 -0.06057949 383.09464879 -0.05679132 394.14380307 -0.03015466 C399.78140377 -0.01701186 405.41870831 -0.01187236 411.05630684 -0.02840042 C416.21741572 -0.04330275 421.37795398 -0.03510661 426.53901111 -0.00851266 C428.40561065 -0.002929 430.27225842 -0.00576555 432.13882691 -0.0178916 C450.04762671 -0.12530767 450.04762671 -0.12530767 457.12889099 5.63491821 C458.0222113 6.34132446 458.91553162 7.04773071 459.83592224 7.77554321 C460.53072693 8.47163696 461.22553162 9.16773071 461.94139099 9.88491821 C463.00293396 10.91359009 463.00293396 10.91359009 464.08592224 11.96304321 C470.36290695 20.17233106 470.70752614 28.10015872 470.64355469 38.17178345 C470.64888583 39.64157272 470.65595478 41.11135653 470.66460174 42.58113003 C470.68318071 46.60249874 470.67694064 50.62349798 470.66644871 54.64488173 C470.65944324 58.98852691 470.67546478 63.33209722 470.68844604 67.67572021 C470.71006816 76.17796527 470.70996384 84.6800764 470.7018205 93.18233991 C470.69551651 100.09329346 470.69666119 107.00420799 470.70309258 113.91516113 C470.70399423 114.89937182 470.70489589 115.8835825 470.70582486 116.89761776 C470.70767609 118.89712438 470.70953865 120.89663099 470.71141242 122.8961376 C470.72798443 141.63837174 470.71927652 160.38053056 470.70242684 179.12276018 C470.68772797 196.26540201 470.702362 213.40786861 470.73119701 230.55048788 C470.76059615 248.15981863 470.77156193 265.76906852 470.76201481 283.37842274 C470.76099227 285.37050691 470.75999766 287.36259109 470.7590313 289.35467529 C470.75855491 290.33477725 470.75807852 291.31487921 470.75758769 292.32468122 C470.75542438 299.22604754 470.76522314 306.12733721 470.77980232 313.02868652 C470.79732589 321.44102519 470.7972078 329.85314038 470.77445067 338.26547027 C470.76330913 342.55629927 470.76014387 346.84673456 470.77875137 351.13754654 C470.79557763 355.06821797 470.78917678 358.99815295 470.76453459 362.92877686 C470.7596579 364.34790167 470.76314911 365.76708612 470.77602202 367.18616092 C470.85994903 377.16063915 469.28816728 383.22699791 463.24217224 391.08804321 C450.58025122 403.72249803 435.30908201 403.95455219 418.37498474 403.97085571 C416.78180834 403.97730165 415.18863306 403.98403127 413.59545898 403.99102783 C410.27657833 404.00291909 406.95780117 404.00671675 403.63890076 404.00552368 C399.41387267 404.00532006 395.18951385 404.03270357 390.96464443 404.0670681 C387.68125429 404.08943482 384.39802338 404.09335838 381.1145649 404.09230423 C379.55783326 404.09464236 378.00109601 404.10336338 376.44444084 404.11896896 C363.93390052 404.23274179 353.53966995 402.84573605 344.12889099 393.94741821 C342.93841474 392.8760714 341.74699766 391.80576916 340.55467224 390.73648071 C339.68963074 389.94805786 339.68963074 389.94805786 338.80711365 389.14370728 C336.37445627 386.95665133 333.85306302 384.88723377 331.31639099 382.82241821 C330.0131488 381.75894165 330.0131488 381.75894165 328.68357849 380.67398071 C325.4109412 378.06187572 322.07543578 375.53752494 318.71092224 373.04507446 C318.18885193 372.5797229 317.66678162 372.11437134 317.12889099 371.63491821 C317.12889099 370.97491821 317.12889099 370.31491821 317.12889099 369.63491821 C316.55139099 369.36163696 315.97389099 369.08835571 315.37889099 368.80679321 C308.7907912 365.37549124 302.95324867 360.91012164 300.45359802 353.68228149 C298.84807992 347.55199575 299.4492883 343.28841066 301.37889099 337.32241821 C301.64685486 336.44593628 301.91481873 335.56945435 302.19090271 334.66641235 C303.13501487 331.64332242 304.12546145 328.63883874 305.12889099 325.63491821 C305.5281781 324.43415649 305.92746521 323.23339478 306.33885193 321.99624634 C307.40543305 318.80971212 308.49377422 315.63125701 309.5980072 312.45758057 C310.24457197 310.59920325 310.88453507 308.73853334 311.5243988 306.87783813 C311.93270935 305.734198 312.3410199 304.59055786 312.76170349 303.41226196 C313.30141785 301.88460205 313.30141785 301.88460205 313.85203552 300.32608032 C315.21965232 297.44362526 316.75401732 295.73649045 319.12889099 293.63491821 C315.65214697 286.89317119 315.65214697 286.89317119 309.68357849 282.84194946 C308.84053162 282.75300415 307.99748474 282.66405884 307.12889099 282.57241821 C304.15267074 282.22280198 302.5857133 282.02399145 300.28514099 280.06460571 C298.40910246 277.66646211 296.76594536 275.20351817 295.12889099 272.63491821 C293.80176399 270.63336658 292.46636375 268.63746961 291.13084412 266.64151001 C290.2183596 265.27035642 289.31329304 263.89423505 288.41600037 262.51309204 C287.34475916 260.87081556 286.23999626 259.25049082 285.12889099 257.63491821 C284.79889099 257.63491821 284.46889099 257.63491821 284.12889099 257.63491821 C284.13412781 258.51115845 284.13936462 259.38739868 284.14476013 260.29019165 C284.16199551 263.60025719 284.17443389 266.91027374 284.18382263 270.22036743 C284.18879311 271.64192466 284.19557183 273.06347694 284.20433044 274.48501587 C284.35865619 300.21202567 284.35865619 300.21202567 279.12889099 307.63491821 C278.46889099 307.63491821 277.80889099 307.63491821 277.12889099 307.63491821 C277.12889099 308.29491821 277.12889099 308.95491821 277.12889099 309.63491821 C275.54344177 311.02017212 275.54344177 311.02017212 273.32420349 312.61148071 C272.5174115 313.19478149 271.71061951 313.77808228 270.87937927 314.37905884 C270.01296814 314.99974243 269.14655701 315.62042603 268.25389099 316.25991821 C267.38361267 316.90380493 266.51333435 317.54769165 265.61668396 318.21109009 C262.0814548 320.82468877 258.61812774 323.34991473 254.81639099 325.56460571 C249.0243566 329.11399264 247.4572181 332.83226943 245.8825531 339.2225647 C245.04193293 343.11683967 244.31252551 347.02455434 243.62156677 350.94790649 C242.60562907 356.48874415 241.10600368 361.90841757 239.69871521 367.36050415 C239.02177919 370.06244758 238.39133744 372.77404163 237.75779724 375.48648071 C237.25697369 377.55690902 236.7556728 379.62722193 236.25389099 381.69741821 C235.92336731 383.16199463 235.92336731 383.16199463 235.58616638 384.65615845 C234.06546462 390.80106744 232.09845658 395.51855207 227.12889099 399.63491821 C224.51437329 400.96193413 221.96082895 401.88967138 219.12889099 402.63491821 C218.54107849 402.80676636 217.95326599 402.9786145 217.34764099 403.15567017 C214.75490792 403.71569823 212.35165976 403.77931078 209.69920349 403.81069946 C208.65635193 403.83454712 207.61350037 403.85839478 206.53904724 403.88296509 C204.35695177 403.92577671 202.17459961 403.95711245 199.99217224 403.97671509 C193.84202757 404.13975838 189.95766404 404.45927708 185.12889099 408.63491821 C183.82178162 409.66359009 183.82178162 409.66359009 182.48826599 410.71304321 C181.62717224 411.42976196 180.76607849 412.14648071 179.87889099 412.88491821 C174.6721668 417.19075143 169.41260738 421.42417495 164.12889099 425.63491821 C163.24975037 426.3709729 162.37060974 427.10702759 161.46482849 427.86538696 C159.12889099 429.63491821 159.12889099 429.63491821 157.12889099 429.63491821 C157.12889099 430.29491821 157.12889099 430.95491821 157.12889099 431.63491821 C155.30518889 433.13696412 153.41775332 434.56207991 151.50389099 435.94741821 C148.0870778 438.43915753 144.69684657 440.91954686 141.50389099 443.69741821 C139.12889099 445.63491821 139.12889099 445.63491821 137.12889099 445.63491821 C137.12889099 446.29491821 137.12889099 446.95491821 137.12889099 447.63491821 C135.44920349 449.14273071 135.44920349 449.14273071 133.25389099 450.75991821 C132.53459412 451.29874634 131.81529724 451.83757446 131.07420349 452.39273071 C129.12889099 453.63491821 129.12889099 453.63491821 127.12889099 453.63491821 C127.12889099 454.29491821 127.12889099 454.95491821 127.12889099 455.63491821 C125.4097014 457.05407472 123.62512289 458.39430387 121.81639099 459.69741821 C116.66684795 463.4590164 111.69841722 467.38386426 106.78123474 471.44741821 C102.60349156 474.8929796 98.36268008 478.25869087 94.12889099 481.63491821 C93.3515863 482.25882446 92.57428162 482.88273071 91.77342224 483.52554321 C80.20816514 492.80793554 80.20816514 492.80793554 75.71043396 496.26235962 C72.48780324 498.73925761 69.39039111 501.2748875 66.37889099 504.00601196 C58.25910186 511.1104405 52.0330142 514.07095879 41.09080505 513.58096313 C33.66227773 512.91640481 28.42890086 511.28153743 23.34373474 505.66226196 C14.10190154 493.97341856 15.98770496 480.01652337 16.03123474 465.84194946 C16.03310336 464.04163147 16.03452517 462.24131295 16.03552246 460.44099426 C16.03931267 455.73767658 16.04911249 451.03439052 16.06022644 446.33108521 C16.07051634 441.51765368 16.07503621 436.70421697 16.08006287 431.89077759 C16.09073841 422.47214402 16.10777205 413.05353376 16.12889099 403.63491821 C15.50630402 403.64146423 14.88371704 403.64801025 14.24226379 403.65475464 C11.37896853 403.68098776 8.5156987 403.69707858 5.65232849 403.71304321 C4.67320496 403.72351685 3.69408142 403.73399048 2.68528748 403.74478149 C-12.64453387 403.80873569 -24.73552298 401.14265409 -35.79298401 390.24429321 C-42.23333381 382.1575382 -42.45090619 375.2188975 -42.39250183 365.18707275 C-42.39854815 363.71473364 -42.40632877 362.24240081 -42.41568696 360.77007902 C-42.4362228 356.73698913 -42.43188981 352.7042553 -42.42332578 348.67113638 C-42.41838685 344.31654128 -42.43642507 339.96203142 -42.45140076 335.60746765 C-42.47688663 327.08136197 -42.48048319 318.55538228 -42.47580023 310.02924491 C-42.4722327 303.09825203 -42.47573569 296.16729737 -42.48424911 289.23630905 C-42.48543949 288.24947624 -42.48662987 287.26264342 -42.48785632 286.24590658 C-42.49027985 284.24108716 -42.49270812 282.23626775 -42.49514107 280.23144834 C-42.516889 261.43434965 -42.51256853 242.63732274 -42.50037138 223.84022002 C-42.49003313 206.64966666 -42.51254407 189.45933997 -42.55056782 172.26883145 C-42.58932551 154.61093465 -42.60583649 136.95314508 -42.59832132 119.29520547 C-42.59449737 109.38427482 -42.59947141 99.47353708 -42.6277504 89.56264114 C-42.65158125 81.12539528 -42.65438456 72.6884611 -42.63017006 64.25121094 C-42.61839448 59.94804762 -42.61618649 55.64545433 -42.64017487 51.34232903 C-42.661901 47.39912571 -42.65567932 43.45696801 -42.6276515 39.51381354 C-42.62235956 38.09127362 -42.62708514 36.66865165 -42.64312322 35.24619229 C-42.76083745 24.02230376 -40.12045196 17.10414323 -32.62110901 8.82241821 C-22.83559981 -0.1110362 -12.5738091 -0.0817913 0 0 Z " fill="#3ACCAA" transform="translate(41.87110900878906,-0.634918212890625)"/>
<path d="M0 0 C1.92850557 -0.00576539 3.85700563 -0.01370932 5.78549427 -0.02363622 C11.07021052 -0.04447499 16.35447428 -0.03420772 21.63919199 -0.01870513 C27.34411239 -0.00738356 33.04895547 -0.02485831 38.75386047 -0.03860474 C49.92368658 -0.06083254 61.09334466 -0.05603804 72.26317734 -0.04154153 C81.34087022 -0.0302481 90.41851602 -0.02871886 99.49621391 -0.03416061 C100.78835421 -0.03492678 102.0804945 -0.03569294 103.41179056 -0.03648233 C106.03676265 -0.03808096 108.66173473 -0.03970202 111.2867068 -0.04134528 C135.19654531 -0.05519495 159.10629307 -0.04083464 183.01611697 -0.0146323 C204.83590255 0.00909778 226.65554223 0.00696941 248.47532654 -0.01693726 C273.00037854 -0.04371823 297.52534237 -0.05423082 322.05040783 -0.03887594 C324.66539982 -0.03728319 327.28039182 -0.03571134 329.89538383 -0.03416061 C331.18200704 -0.03338924 332.46863025 -0.03261786 333.79424204 -0.03182311 C342.86167366 -0.02750571 351.92905352 -0.03479349 360.99647713 -0.04655838 C372.04565176 -0.06057949 383.09464879 -0.05679132 394.14380307 -0.03015466 C399.78140377 -0.01701186 405.41870831 -0.01187236 411.05630684 -0.02840042 C416.21741572 -0.04330275 421.37795398 -0.03510661 426.53901111 -0.00851266 C428.40561065 -0.002929 430.27225842 -0.00576555 432.13882691 -0.0178916 C450.04762671 -0.12530767 450.04762671 -0.12530767 457.12889099 5.63491821 C458.0222113 6.34132446 458.91553162 7.04773071 459.83592224 7.77554321 C460.53072693 8.47163696 461.22553162 9.16773071 461.94139099 9.88491821 C463.00293396 10.91359009 463.00293396 10.91359009 464.08592224 11.96304321 C470.36290695 20.17233106 470.70752614 28.10015872 470.64355469 38.17178345 C470.64888583 39.64157272 470.65595478 41.11135653 470.66460174 42.58113003 C470.68318071 46.60249874 470.67694064 50.62349798 470.66644871 54.64488173 C470.65944324 58.98852691 470.67546478 63.33209722 470.68844604 67.67572021 C470.71006816 76.17796527 470.70996384 84.6800764 470.7018205 93.18233991 C470.69551651 100.09329346 470.69666119 107.00420799 470.70309258 113.91516113 C470.70399423 114.89937182 470.70489589 115.8835825 470.70582486 116.89761776 C470.70767609 118.89712438 470.70953865 120.89663099 470.71141242 122.8961376 C470.72798443 141.63837174 470.71927652 160.38053056 470.70242684 179.12276018 C470.68772797 196.26540201 470.702362 213.40786861 470.73119701 230.55048788 C470.76059615 248.15981863 470.77156193 265.76906852 470.76201481 283.37842274 C470.76099227 285.37050691 470.75999766 287.36259109 470.7590313 289.35467529 C470.75855491 290.33477725 470.75807852 291.31487921 470.75758769 292.32468122 C470.75542438 299.22604754 470.76522314 306.12733721 470.77980232 313.02868652 C470.79732589 321.44102519 470.7972078 329.85314038 470.77445067 338.26547027 C470.76330913 342.55629927 470.76014387 346.84673456 470.77875137 351.13754654 C470.79557763 355.06821797 470.78917678 358.99815295 470.76453459 362.92877686 C470.7596579 364.34790167 470.76314911 365.76708612 470.77602202 367.18616092 C470.85994903 377.16063915 469.28816728 383.22699791 463.24217224 391.08804321 C450.58025122 403.72249803 435.30908201 403.95455219 418.37498474 403.97085571 C416.78180834 403.97730165 415.18863306 403.98403127 413.59545898 403.99102783 C410.27657833 404.00291909 406.95780117 404.00671675 403.63890076 404.00552368 C399.41387267 404.00532006 395.18951385 404.03270357 390.96464443 404.0670681 C387.68125429 404.08943482 384.39802338 404.09335838 381.1145649 404.09230423 C379.55783326 404.09464236 378.00109601 404.10336338 376.44444084 404.11896896 C363.93390052 404.23274179 353.53966995 402.84573605 344.12889099 393.94741821 C342.93841474 392.8760714 341.74699766 391.80576916 340.55467224 390.73648071 C339.68963074 389.94805786 339.68963074 389.94805786 338.80711365 389.14370728 C336.37445627 386.95665133 333.85306302 384.88723377 331.31639099 382.82241821 C330.0131488 381.75894165 330.0131488 381.75894165 328.68357849 380.67398071 C325.4109412 378.06187572 322.07543578 375.53752494 318.71092224 373.04507446 C318.18885193 372.5797229 317.66678162 372.11437134 317.12889099 371.63491821 C317.12889099 370.97491821 317.12889099 370.31491821 317.12889099 369.63491821 C316.55139099 369.36163696 315.97389099 369.08835571 315.37889099 368.80679321 C308.7907912 365.37549124 302.95324867 360.91012164 300.45359802 353.68228149 C298.84810432 347.55208893 299.44912747 343.28831923 301.37889099 337.32241821 C301.64685486 336.44666138 301.91481873 335.57090454 302.19090271 334.66860962 C303.13572065 331.64508777 304.12649356 328.63983853 305.12889099 325.63491821 C305.5281781 324.42883911 305.92746521 323.22276001 306.33885193 321.98013306 C307.40443889 318.78032279 308.49290495 315.58902028 309.5980072 312.40264893 C310.24566558 310.53365486 310.88508733 308.66181317 311.5243988 306.78994751 C311.93270935 305.64308472 312.3410199 304.49622192 312.76170349 303.31460571 C313.30141785 301.77909058 313.30141785 301.77909058 313.85203552 300.21255493 C315.26548294 297.35917484 316.38161 296.20135606 319.12889099 294.63491821 C323.28628414 294.01900812 326.15091584 294.23489538 329.62889099 296.57241821 C332.12889099 299.63491821 332.12889099 299.63491821 332.25769043 301.56422424 C331.4821637 307.36712833 330.05521202 312.72147756 328.18748474 318.26382446 C327.9003511 319.13893173 327.61321747 320.014039 327.31738281 320.91566467 C326.40860704 323.67904326 325.48773526 326.43820795 324.56639099 329.19741821 C323.94383845 331.08321945 323.32208589 332.96928499 322.70115662 334.85562134 C321.18629516 339.45182614 319.66058064 344.04429539 318.12889099 348.63491821 C318.72564636 348.91327515 319.32240173 349.19163208 319.9372406 349.47842407 C323.24784841 351.22537174 325.89754994 353.73839674 328.69139099 356.19741821 C329.95095102 357.2921546 331.21137633 358.38589619 332.47264099 359.47866821 C333.40463318 360.2869104 333.40463318 360.2869104 334.35545349 361.11148071 C337.62107815 363.916753 340.97301746 366.61480872 344.31639099 369.32632446 C348.21914901 372.52983834 352.06013944 375.80493825 355.89085388 379.09414673 C360.6696911 383.17252928 363.26758115 383.78640022 369.42088318 383.79605103 C370.17231598 383.80101593 370.92374878 383.80598083 371.69795227 383.81109619 C374.19056609 383.82573229 376.68311621 383.83252315 379.17576599 383.83804321 C380.90731305 383.84379467 382.63886009 383.8495524 384.3704071 383.85531616 C388.00539955 383.86583109 391.64036985 383.87167014 395.27537537 383.87515259 C399.92701738 383.88063012 404.5783656 383.90464011 409.22991562 383.93312454 C412.80905502 383.95177717 416.38812415 383.95695798 419.96730804 383.95848846 C421.68167472 383.96151097 423.39604027 383.96952592 425.11035919 383.98267365 C427.51357116 383.99978486 429.91607201 383.99784146 432.31932068 383.99136353 C433.02396454 384.00057831 433.7286084 384.00979309 434.4546051 384.01928711 C439.7457439 383.97475202 443.82494298 382.73638148 447.77342224 379.13491821 C451.33660811 374.55878653 452.25322797 371.65843549 452.26311207 365.94139385 C452.26979883 364.15100249 452.26979883 364.15100249 452.27662069 362.32444161 C452.27643632 361.00656854 452.27625196 359.68869546 452.27606201 358.33088684 C452.27936073 356.92189107 452.28308632 355.51289625 452.28720349 354.10390264 C452.29723044 350.22292469 452.30094139 346.34196221 452.3035928 342.46097314 C452.30749372 338.27886126 452.31707211 334.09676165 452.32580566 329.91465759 C452.34557467 319.81123479 452.35563621 309.70781097 452.36453345 299.60437366 C452.36891508 294.84880554 452.37428217 290.09323852 452.37952232 285.33767128 C452.396534 269.53365275 452.41102928 253.72963492 452.41827106 237.92560863 C452.42018101 233.82374763 452.42210134 229.72188662 452.42405701 225.62002563 C452.42454075 224.60050575 452.42502449 223.58098587 452.42552289 222.53057144 C452.43382738 206.00633931 452.45917163 189.48217947 452.49163768 172.95797893 C452.52468327 156.00088743 452.5427175 139.04383272 452.54591531 122.08670884 C452.54808258 112.56262976 452.55686303 103.03865613 452.58237648 93.51460838 C452.60404923 85.40547655 452.61215078 77.2964758 452.6024097 69.18731829 C452.5978552 65.04883209 452.59981767 60.91061654 452.61917114 56.77216721 C452.63673381 52.98400227 452.63586177 49.1963068 452.62027385 45.40813736 C452.61675607 43.38761221 452.63297532 41.36708253 452.64987832 39.34662503 C452.62799508 30.67618219 452.62799508 30.67618219 448.12889099 23.63491821 C443.07944535 19.07810141 439.30129822 18.48704475 432.70183849 18.50069714 C431.93534126 18.49834491 431.16884403 18.49599268 430.3791196 18.49356917 C427.78968915 18.48686893 425.20030877 18.4873377 422.61087036 18.48774719 C420.74402201 18.48444922 418.87717436 18.48072379 417.01032764 18.47660571 C411.86377536 18.46657027 406.71723474 18.46286645 401.57067406 18.4602164 C396.02658791 18.456318 390.48251103 18.44673943 384.93843079 18.43800354 C371.54243064 18.41822738 358.14642973 18.40817207 344.75041863 18.39927575 C338.44675902 18.39489528 332.14310025 18.38952789 325.8394413 18.38428688 C304.89355369 18.36727447 283.94766625 18.35275398 263.00177288 18.34553814 C261.64701211 18.34506338 260.29225134 18.34458749 258.93749057 18.34411048 C257.92972099 18.34375591 257.92972099 18.34375591 256.90159242 18.34339419 C253.49762228 18.34219297 250.09365214 18.34097753 246.68968201 18.3397522 C246.01415148 18.33951205 245.33862095 18.3392719 244.6426198 18.33902447 C222.73326205 18.33112903 200.82395839 18.30769188 178.91462426 18.27519625 C155.75752906 18.24091258 132.60046423 18.22118956 109.44333965 18.2178939 C96.81730159 18.21572566 84.19134305 18.20693111 71.5653286 18.18143272 C60.81567398 18.15977414 50.0661182 18.15165144 39.31644424 18.16139951 C33.82915578 18.16595809 28.34207145 18.16396765 22.85481071 18.14463806 C17.83430203 18.1271049 12.81414787 18.12792361 7.79363594 18.14353535 C5.9746495 18.14592645 4.15563914 18.14151074 2.33668943 18.1297067 C-0.13148581 18.114678 -2.59839015 18.12419675 -5.06653309 18.13993359 C-5.77668195 18.12971138 -6.48683081 18.11948917 -7.21849933 18.1089572 C-12.21307613 18.17870516 -15.00916647 19.53412792 -18.87110901 22.63491821 C-22.76923046 27.05981283 -23.99549327 29.35753924 -24.00253677 35.20539474 C-24.00637792 36.39699794 -24.01021906 37.58860113 -24.01417661 38.81631351 C-24.01339627 40.15044075 -24.01251747 41.48456794 -24.0115509 42.81869507 C-24.01413312 44.22682758 -24.01714588 45.63495935 -24.0205543 47.04309011 C-24.02864452 50.92632963 -24.030415 54.8095507 -24.03115177 58.69279766 C-24.03299884 62.87560716 -24.04054445 67.058407 -24.04728699 71.24121094 C-24.06088553 80.39409471 -24.06689749 89.5469741 -24.07129765 98.69986629 C-24.0740577 104.41234111 -24.07829463 110.12481423 -24.08280182 115.8372879 C-24.09499685 131.64555632 -24.10529546 147.45382338 -24.10867691 163.26209641 C-24.10889648 164.27443984 -24.10911604 165.28678327 -24.10934226 166.32980378 C-24.10956054 167.34460704 -24.10977882 168.35941029 -24.11000371 169.40496516 C-24.11044718 171.46143389 -24.11089374 173.51790261 -24.11134338 175.57437134 C-24.11156481 176.59445672 -24.11178624 177.61454211 -24.11201438 178.66553918 C-24.11596277 195.19628715 -24.13341697 211.72699105 -24.15670291 228.25772199 C-24.18040336 245.21930217 -24.19287818 262.18086023 -24.19404483 279.14245725 C-24.19496237 288.66988349 -24.20073435 298.19725233 -24.21886444 307.72466278 C-24.23424787 315.83746461 -24.23939633 323.9501913 -24.23112634 332.06300494 C-24.22721348 336.20346359 -24.22818026 340.34377085 -24.24218369 344.48421097 C-24.25488476 348.27420001 -24.25375869 352.06392331 -24.24159297 355.85391179 C-24.23869867 357.87546816 -24.25060048 359.89702897 -24.26301503 361.9185493 C-24.25642519 363.12058348 -24.24983534 364.32261766 -24.24304581 365.56107712 C-24.2436429 366.59662947 -24.24423998 367.63218183 -24.24485517 368.69911456 C-23.71737738 372.84249149 -22.19571 376.21594361 -19.33595276 379.27944946 C-14.2824225 383.14391378 -11.47273482 383.78396758 -5.23048401 383.84585571 C-3.66927582 383.87393619 -2.10807805 383.90260073 -0.54689026 383.93179321 C1.91290361 383.97296131 4.37250553 384.00984959 6.83250427 384.0362854 C9.20775038 384.06402131 11.58211389 384.10990302 13.95701599 384.15835571 C14.68535645 384.16160858 15.4136969 384.16486145 16.16410828 384.16821289 C21.72651796 384.301028 25.8685833 385.54993837 29.99217224 389.35366821 C30.47041443 389.94148071 30.94865662 390.52929321 31.44139099 391.13491821 C31.9325238 391.72273071 32.42365662 392.31054321 32.92967224 392.91616821 C35.81307789 397.04873657 35.29473424 401.6457693 35.31834412 406.46499634 C35.33078407 407.81904823 35.33078407 407.81904823 35.34347534 409.20045471 C35.36087756 411.16149643 35.37604391 413.12255897 35.38925171 415.08363342 C35.41026731 418.18480881 35.43729076 421.28587964 35.46592712 424.38699341 C35.53578802 432.08878391 35.59517041 439.79064909 35.654953 447.49252319 C35.70586052 453.99978533 35.76068151 460.50699139 35.82077026 467.01417542 C35.84737993 470.07365256 35.86817286 473.13313484 35.88877869 476.19265747 C35.90537948 478.06338757 35.92225113 479.93411528 35.93943787 481.80484009 C35.94362228 482.65895981 35.9478067 483.51307953 35.95211792 484.39308167 C35.98759218 487.71916273 36.06993019 490.45803581 37.12889099 493.63491821 C41.52355874 494.78761795 44.42885611 495.48357996 48.57810974 493.41226196 C51.53961237 491.27617048 54.3422004 488.99012123 57.12889099 486.63491821 C58.42179467 485.5681549 59.71615396 484.50315416 61.01170349 483.43960571 C63.16117098 481.67242776 65.30795806 479.90244457 67.44725037 478.12295532 C72.41588674 473.99826609 77.47572084 470.02586859 82.62889099 466.13491821 C89.21301434 461.15904919 95.61490906 456.00024042 101.96263123 450.72695923 C106.8762222 446.64962746 111.85523018 442.67216093 116.89134216 438.74771118 C121.35017934 435.2659354 125.74645965 431.71225273 130.12889099 428.13491821 C135.65184193 423.62756079 141.21758494 419.18392863 146.83982849 414.80117798 C150.63447791 411.83446183 154.37233921 408.80613823 158.09178162 405.74575806 C163.835492 401.02771025 169.62256401 396.3908977 175.62889099 392.00991821 C176.69107849 391.23390259 177.75326599 390.45788696 178.84764099 389.65835571 C187.23125713 384.48845909 193.94720228 384.23995345 203.62889099 384.44741821 C204.83287537 384.46095337 206.03685974 384.47448853 207.27732849 384.48843384 C210.22834549 384.52356499 213.17829597 384.57541406 216.12889099 384.63491821 C216.29684929 383.65176888 216.29684929 383.65176888 216.46820068 382.64875793 C218.31577581 372.13250112 220.86989117 361.81177841 223.44944763 351.45498657 C224.02815055 349.11361094 224.59714573 346.76981486 225.15647888 344.42373657 C225.97227207 341.00504952 226.81869004 337.59522564 227.67185974 334.18569946 C227.91381577 333.1459346 228.15577179 332.10616974 228.40505981 331.03489685 C230.70906755 322.0753248 235.22195201 316.34813582 242.72264099 310.96694946 C243.9272699 310.09199829 243.9272699 310.09199829 245.15623474 309.19937134 C245.9722113 308.62122681 246.78818787 308.04308228 247.62889099 307.44741821 C248.44486755 306.85767212 249.26084412 306.26792603 250.10154724 305.66030884 C256.96205024 300.71039536 256.96205024 300.71039536 258.94659424 299.81260681 C261.21726115 298.62709033 262.5493589 297.66831568 264.12889099 295.63491821 C265.14624594 290.97051602 264.98650822 286.32406253 264.89060974 281.57632446 C264.88983676 280.18536619 264.89272749 278.7944015 264.89910889 277.40345764 C264.90868813 273.74738996 264.8801047 270.09274465 264.83995056 266.43692017 C264.77844342 260.59023649 264.75876651 254.74392248 264.76976967 248.89695549 C264.76567997 246.86128263 264.73542706 244.82718191 264.70278931 242.79179382 C264.67627865 231.31500263 264.67627865 231.31500263 269.12889099 226.63491821 C272.02877467 224.28366118 273.78829296 223.67906981 277.50389099 223.19741821 C282.71779261 223.8266822 286.38039198 225.64674085 289.8273468 229.56619263 C291.610499 231.97507585 293.28620307 234.43065483 294.93748474 236.93179321 C295.54906937 237.83939392 296.16065399 238.74699463 296.79077148 239.68209839 C298.07462363 241.59691778 299.35085589 243.51686567 300.61985779 245.44155884 C302.56138273 248.3773452 304.53743995 251.28756898 306.51756287 254.19741821 C307.76386257 256.06577145 309.00807531 257.93551885 310.24998474 259.80679321 C311.1357444 261.10408356 311.1357444 261.10408356 312.03939819 262.42758179 C315.53386394 267.80162993 316.9654197 271.20791865 316.12889099 277.63491821 C314.56639099 280.63491821 314.56639099 280.63491821 312.12889099 282.63491821 C307.03847411 283.37534249 304.25331295 282.57182428 300.12889099 279.63491821 C298.20018005 277.27481079 298.20018005 277.27481079 296.39451599 274.52944946 C295.73838318 273.54653931 295.08225037 272.56362915 294.40623474 271.55093384 C293.7372113 270.52677368 293.06818787 269.50261353 292.37889099 268.44741821 C291.03272073 266.4104167 289.68391567 264.37515304 288.33201599 262.34194946 C287.44497986 260.98807129 287.44497986 260.98807129 286.5400238 259.60684204 C286.07434998 258.95610718 285.60867615 258.30537231 285.12889099 257.63491821 C284.79889099 257.63491821 284.46889099 257.63491821 284.12889099 257.63491821 C284.13412781 258.51115845 284.13936462 259.38739868 284.14476013 260.29019165 C284.16199551 263.60025719 284.17443389 266.91027374 284.18382263 270.22036743 C284.18879311 271.64192466 284.19557183 273.06347694 284.20433044 274.48501587 C284.35865619 300.21202567 284.35865619 300.21202567 279.12889099 307.63491821 C278.46889099 307.63491821 277.80889099 307.63491821 277.12889099 307.63491821 C277.12889099 308.29491821 277.12889099 308.95491821 277.12889099 309.63491821 C275.54344177 311.02017212 275.54344177 311.02017212 273.32420349 312.61148071 C272.5174115 313.19478149 271.71061951 313.77808228 270.87937927 314.37905884 C270.01296814 314.99974243 269.14655701 315.62042603 268.25389099 316.25991821 C267.38361267 316.90380493 266.51333435 317.54769165 265.61668396 318.21109009 C262.0814548 320.82468877 258.61812774 323.34991473 254.81639099 325.56460571 C249.0243566 329.11399264 247.4572181 332.83226943 245.8825531 339.2225647 C245.04193293 343.11683967 244.31252551 347.02455434 243.62156677 350.94790649 C242.60562907 356.48874415 241.10600368 361.90841757 239.69871521 367.36050415 C239.02177919 370.06244758 238.39133744 372.77404163 237.75779724 375.48648071 C237.25697369 377.55690902 236.7556728 379.62722193 236.25389099 381.69741821 C235.92336731 383.16199463 235.92336731 383.16199463 235.58616638 384.65615845 C234.06546462 390.80106744 232.09845658 395.51855207 227.12889099 399.63491821 C224.51437329 400.96193413 221.96082895 401.88967138 219.12889099 402.63491821 C218.54107849 402.80676636 217.95326599 402.9786145 217.34764099 403.15567017 C214.75490792 403.71569823 212.35165976 403.77931078 209.69920349 403.81069946 C208.65635193 403.83454712 207.61350037 403.85839478 206.53904724 403.88296509 C204.35695177 403.92577671 202.17459961 403.95711245 199.99217224 403.97671509 C193.84202757 404.13975838 189.95766404 404.45927708 185.12889099 408.63491821 C183.82178162 409.66359009 183.82178162 409.66359009 182.48826599 410.71304321 C181.62717224 411.42976196 180.76607849 412.14648071 179.87889099 412.88491821 C174.6721668 417.19075143 169.41260738 421.42417495 164.12889099 425.63491821 C163.24975037 426.3709729 162.37060974 427.10702759 161.46482849 427.86538696 C159.12889099 429.63491821 159.12889099 429.63491821 157.12889099 429.63491821 C157.12889099 430.29491821 157.12889099 430.95491821 157.12889099 431.63491821 C155.30518889 433.13696412 153.41775332 434.56207991 151.50389099 435.94741821 C148.0870778 438.43915753 144.69684657 440.91954686 141.50389099 443.69741821 C139.12889099 445.63491821 139.12889099 445.63491821 137.12889099 445.63491821 C137.12889099 446.29491821 137.12889099 446.95491821 137.12889099 447.63491821 C135.44920349 449.14273071 135.44920349 449.14273071 133.25389099 450.75991821 C132.53459412 451.29874634 131.81529724 451.83757446 131.07420349 452.39273071 C129.12889099 453.63491821 129.12889099 453.63491821 127.12889099 453.63491821 C127.12889099 454.29491821 127.12889099 454.95491821 127.12889099 455.63491821 C125.4097014 457.05407472 123.62512289 458.39430387 121.81639099 459.69741821 C116.66684795 463.4590164 111.69841722 467.38386426 106.78123474 471.44741821 C102.60349156 474.8929796 98.36268008 478.25869087 94.12889099 481.63491821 C93.3515863 482.25882446 92.57428162 482.88273071 91.77342224 483.52554321 C80.20816514 492.80793554 80.20816514 492.80793554 75.71043396 496.26235962 C72.48780324 498.73925761 69.39039111 501.2748875 66.37889099 504.00601196 C58.25910186 511.1104405 52.0330142 514.07095879 41.09080505 513.58096313 C33.66227773 512.91640481 28.42890086 511.28153743 23.34373474 505.66226196 C14.10190154 493.97341856 15.98770496 480.01652337 16.03123474 465.84194946 C16.03310336 464.04163147 16.03452517 462.24131295 16.03552246 460.44099426 C16.03931267 455.73767658 16.04911249 451.03439052 16.06022644 446.33108521 C16.07051634 441.51765368 16.07503621 436.70421697 16.08006287 431.89077759 C16.09073841 422.47214402 16.10777205 413.05353376 16.12889099 403.63491821 C15.50630402 403.64146423 14.88371704 403.64801025 14.24226379 403.65475464 C11.37896853 403.68098776 8.5156987 403.69707858 5.65232849 403.71304321 C4.67320496 403.72351685 3.69408142 403.73399048 2.68528748 403.74478149 C-12.64453387 403.80873569 -24.73552298 401.14265409 -35.79298401 390.24429321 C-42.23333381 382.1575382 -42.45090619 375.2188975 -42.39250183 365.18707275 C-42.39854815 363.71473364 -42.40632877 362.24240081 -42.41568696 360.77007902 C-42.4362228 356.73698913 -42.43188981 352.7042553 -42.42332578 348.67113638 C-42.41838685 344.31654128 -42.43642507 339.96203142 -42.45140076 335.60746765 C-42.47688663 327.08136197 -42.48048319 318.55538228 -42.47580023 310.02924491 C-42.4722327 303.09825203 -42.47573569 296.16729737 -42.48424911 289.23630905 C-42.48543949 288.24947624 -42.48662987 287.26264342 -42.48785632 286.24590658 C-42.49027985 284.24108716 -42.49270812 282.23626775 -42.49514107 280.23144834 C-42.516889 261.43434965 -42.51256853 242.63732274 -42.50037138 223.84022002 C-42.49003313 206.64966666 -42.51254407 189.45933997 -42.55056782 172.26883145 C-42.58932551 154.61093465 -42.60583649 136.95314508 -42.59832132 119.29520547 C-42.59449737 109.38427482 -42.59947141 99.47353708 -42.6277504 89.56264114 C-42.65158125 81.12539528 -42.65438456 72.6884611 -42.63017006 64.25121094 C-42.61839448 59.94804762 -42.61618649 55.64545433 -42.64017487 51.34232903 C-42.661901 47.39912571 -42.65567932 43.45696801 -42.6276515 39.51381354 C-42.62235956 38.09127362 -42.62708514 36.66865165 -42.64312322 35.24619229 C-42.76083745 24.02230376 -40.12045196 17.10414323 -32.62110901 8.82241821 C-22.83559981 -0.1110362 -12.5738091 -0.0817913 0 0 Z " fill="#373737" transform="translate(41.87110900878906,-0.634918212890625)"/>
<path d="M0 0 C7.36229882 4.86977887 11.53575852 11.62409671 14 20 C14.42720214 24.3894122 14.37021617 28.77920145 14.375 33.1875 C14.39949219 34.35603516 14.42398438 35.52457031 14.44921875 36.72851562 C14.48150795 46.3776053 12.66735852 55.64029832 6.61328125 63.4375 C0.34917159 69.50443429 -7.68832473 72.99276509 -16.3125 73.375 C-25.14349089 73.1835422 -32.65983034 69.03562002 -39 63 C-45.47778379 54.7794622 -46.42062909 46.62922164 -46.48046875 36.38916016 C-46.49974907 34.40087693 -46.56209574 32.41316269 -46.625 30.42578125 C-46.70480712 20.45986745 -44.764504 12.37514175 -38.02270508 4.76928711 C-27.40753006 -5.46460585 -12.90695864 -7.32987774 0 0 Z " fill="#373938" transform="translate(447,260)"/>
<path d="M0 0 C8.43759929 4.774655 13.04396948 11.20648544 16.3125 20.30859375 C17.02025993 24.83059288 17.18171919 29.22551191 17.09472656 33.79931641 C17.06249233 35.80907209 17.09459202 37.81079702 17.1328125 39.8203125 C17.07397493 49.75405626 15.01279299 57.91989188 8.3671875 65.53881836 C2.19044018 71.59607504 -5.16894477 74.47058522 -13.75 74.80859375 C-19.48029975 74.60262662 -23.74903404 73.13761517 -28.6875 70.30859375 C-29.739375 69.75171875 -30.79125 69.19484375 -31.875 68.62109375 C-38.9048279 62.84101303 -43.04965384 54.43305496 -43.98852539 45.41821289 C-44.12526647 42.25100747 -44.14605642 39.10354206 -44.125 35.93359375 C-44.14498047 34.87398437 -44.16496094 33.814375 -44.18554688 32.72265625 C-44.1792427 22.43423581 -41.84170923 13.59293732 -34.6171875 6.02734375 C-24.61160709 -2.88450925 -12.48185888 -5.78086092 0 0 Z " fill="#373939" transform="translate(162.6875,53.69140625)"/>
<path d="M0 0 C6.02154638 5.00645755 9.0349902 9.80418934 11.51171875 17.234375 C11.76311707 21.55703913 11.78260352 25.88193893 11.80688477 30.2109375 C11.81835491 31.63258863 11.83872764 33.05419839 11.8684082 34.47558594 C12.04161058 42.77768874 12.01727086 49.99238539 7.51171875 57.234375 C7.01671875 58.03230469 6.52171875 58.83023438 6.01171875 59.65234375 C0.49984227 66.15463554 -6.32702539 70.45145404 -14.8359375 71.7421875 C-24.17493873 72.06987175 -30.66603929 69.77439085 -37.80078125 63.859375 C-43.60035259 58.4518224 -47.08628088 52.7739361 -47.79467773 44.77441406 C-47.85247756 41.40239429 -47.90505568 38.0316683 -47.91381836 34.65917969 C-47.92567667 32.50338731 -47.97488614 30.35049905 -48.02539062 28.1953125 C-48.14791987 17.79482594 -46.27634816 10.24071188 -39.17578125 2.359375 C-28.04262876 -7.92484429 -12.30814161 -8.73356359 0 0 Z " fill="#373938" transform="translate(312.48828125,56.765625)"/>
<path d="M0 0 C6.83467052 4.75497792 11.86273979 10.65196699 13.734375 18.90234375 C14.18443208 23.86658745 14.19865922 28.79547848 14.171875 33.77734375 C14.2018457 35.74380859 14.2018457 35.74380859 14.23242188 37.75 C14.22687489 48.81067977 12.28037142 57.068339 4.59375 65.21484375 C-1.77933066 70.99881611 -9.17366501 73.34802706 -17.67578125 73.15625 C-27.40300035 72.20260107 -34.20511619 67.34786603 -40.65234375 60.29296875 C-45.70352344 52.80792766 -45.76654688 45.35897852 -45.71166992 36.60351562 C-45.70316904 34.538044 -45.73197141 32.47535534 -45.76367188 30.41015625 C-45.81182585 21.16514925 -44.42745114 14.05494932 -39.578125 6.15234375 C-28.31165234 -4.80962965 -14.01096318 -7.87653353 0 0 Z " fill="#373938" transform="translate(165.265625,260.09765625)"/>
<path d="M0 0 C8.67707824 8.91810819 10.62341276 17.30103499 10.62060547 29.38500977 C10.62495204 31.47691952 10.66123123 33.56666972 10.69921875 35.65820312 C10.77772437 45.00628814 9.70477517 52.98036208 4 60.625 C-3.44369192 67.8995171 -11.19804869 70.79661335 -21.51123047 70.81665039 C-29.22201093 70.59110172 -34.88837902 67.78553019 -40.61328125 62.63671875 C-48.47746393 54.14808484 -49.42012403 45.80845836 -49.32641602 34.73193359 C-49.31256796 32.44870515 -49.34666022 30.16960133 -49.38476562 27.88671875 C-49.43569193 18.36901454 -48.4608901 10.5583017 -41.86865234 3.2175293 C-29.97238675 -8.50667623 -13.71128832 -8.41374511 0 0 Z " fill="#373938" transform="translate(168.75,159.6875)"/>
<path d="M0 0 C6.25824997 4.14762449 10.62404105 9.87212315 13 17 C13.29933566 21.7137489 13.35616753 26.42612063 13.4050293 31.1484375 C13.42648181 32.7020508 13.4604317 34.25554751 13.50756836 35.80859375 C13.84024412 46.88989305 13.01785132 55.23699961 5.28857422 63.92333984 C-0.86306325 69.97736326 -8.54858042 72.222975 -17 72.5625 C-25.14371744 72.31437803 -30.77876817 69.80107116 -36.875 64.5 C-37.926875 63.2625 -37.926875 63.2625 -39 62 C-40.051875 60.8553125 -40.051875 60.8553125 -41.125 59.6875 C-46.37741606 52.15903698 -46.5304262 44.59496263 -46.50097656 35.70117188 C-46.50000484 33.63529601 -46.54170125 31.57315365 -46.5859375 29.5078125 C-46.67381734 19.69903627 -45.00482213 12.60554545 -38.5 5.125 C-37.675 4.42375 -36.85 3.7225 -36 3 C-35.21625 2.29875 -34.4325 1.5975 -33.625 0.875 C-23.5640125 -6.31141965 -10.67267765 -6.15878531 0 0 Z " fill="#373938" transform="translate(251,158)"/>
<path d="M0 0 C3.61442736 1.22754137 4.95273567 2.17926825 7.3125 5.125 C7.79351807 7.69403076 7.79351807 7.69403076 7.76660156 10.62792969 C7.76614838 12.27918854 7.76614838 12.27918854 7.76568604 13.96380615 C7.74504089 15.14621887 7.72439575 16.32863159 7.703125 17.546875 C7.69746521 18.76199768 7.69180542 19.97712036 7.68597412 21.22906494 C7.66357734 25.11144343 7.61337187 28.99290028 7.5625 32.875 C7.5424394 35.50649709 7.52418787 38.13800864 7.5078125 40.76953125 C7.46370153 47.22166881 7.39675519 53.67326856 7.3125 60.125 C8.47652344 60.30675781 8.47652344 60.30675781 9.6640625 60.4921875 C12.3125 61.125 12.3125 61.125 14.6875 63.25 C16.3125 66.125 16.3125 66.125 16.375 69.6875 C15.04763075 73.98192993 14.20042026 74.8799308 10.3125 77.125 C6.47034669 77.73936692 2.69644557 77.7287154 -1.1875 77.6875 C-2.73630859 77.72327148 -2.73630859 77.72327148 -4.31640625 77.75976562 C-9.20164657 77.75031032 -11.83846697 77.74352161 -15.8671875 74.80859375 C-18.28378462 71.24592803 -18.44150938 69.34745252 -17.6875 65.125 C-15.375 62.1875 -15.375 62.1875 -12.6875 60.125 C-11.6975 60.125 -10.7075 60.125 -9.6875 60.125 C-9.6875 48.905 -9.6875 37.685 -9.6875 26.125 C-11.0075 25.795 -12.3275 25.465 -13.6875 25.125 C-16.77539338 22.89485478 -17.58077067 21.62953864 -18.375 17.875 C-17.38575722 12.47913029 -14.53854059 9.86299635 -10.6875 6.125 C-10.10097656 5.50625 -9.51445313 4.8875 -8.91015625 4.25 C-5.79705077 1.20042728 -4.48688359 0.15209775 0 0 Z " fill="#373938" transform="translate(77.6875,50.875)"/>
<path d="M0 0 C2.94502938 3.11846771 3.36967703 5.27360466 3.34057617 9.50292969 C3.34034958 10.60376892 3.34012299 11.70460815 3.33988953 12.83880615 C3.32440567 14.02121887 3.30892181 15.20363159 3.29296875 16.421875 C3.28872391 17.63699768 3.28447906 18.85212036 3.28010559 20.10406494 C3.26330876 23.98626839 3.22565338 27.86795336 3.1875 31.75 C3.17245452 34.38150292 3.15876588 37.01301398 3.14648438 39.64453125 C3.11340185 46.09653117 3.06319179 52.54822854 3 59 C4.16595703 59.19529297 4.16595703 59.19529297 5.35546875 59.39453125 C8.74524417 60.17062459 9.95803478 61.20175136 12 64 C12.66974422 67.93474728 12.35110528 69.47334208 10.125 72.8125 C7.88067227 75.12283737 6.99858279 75.93355438 3.81689453 76.14526367 C0.91947542 76.1697734 -1.977469 76.18565913 -4.875 76.1875 C-5.88175781 76.19974609 -6.88851562 76.21199219 -7.92578125 76.22460938 C-9.38177734 76.22750977 -9.38177734 76.22750977 -10.8671875 76.23046875 C-11.75519043 76.23457764 -12.64319336 76.23868652 -13.55810547 76.24291992 C-16.21154599 75.97895538 -17.77123808 75.44914764 -20 74 C-22.50031654 70.24952518 -22.53603554 68.44143734 -22 64 C-19.6875 61.0625 -19.6875 61.0625 -17 59 C-16.01 59 -15.02 59 -14 59 C-14 47.45 -14 35.9 -14 24 C-15.65 23.67 -17.3 23.34 -19 23 C-21.59694935 20.67170059 -21.9699393 19.22133188 -22.44140625 15.75 C-21.84731392 10.70284393 -19.77763041 8.92657669 -16.125 5.625 C-15.56941406 5.09261719 -15.01382813 4.56023437 -14.44140625 4.01171875 C-9.70971542 -0.46913546 -6.48023671 -2.11730506 0 0 Z " fill="#373938" transform="translate(82,257)"/>
<path d="M0 0 C2.65868284 2.06441943 3.85475453 3.22427014 4.48101807 6.56903076 C4.47213562 7.53721741 4.46325317 8.50540405 4.45410156 9.50292969 C4.45364838 11.15418854 4.45364838 11.15418854 4.45318604 12.83880615 C4.43254089 14.02121887 4.41189575 15.20363159 4.390625 16.421875 C4.38496521 17.63699768 4.37930542 18.85212036 4.37347412 20.10406494 C4.35107734 23.98644343 4.30087187 27.86790028 4.25 31.75 C4.2299394 34.38149709 4.21168787 37.01300864 4.1953125 39.64453125 C4.15120153 46.09666881 4.08425519 52.54826856 4 59 C5.16402344 59.18175781 5.16402344 59.18175781 6.3515625 59.3671875 C9 60 9 60 11.375 62.125 C13 65 13 65 12.9375 68.625 C11.68253968 73.14285714 11.68253968 73.14285714 9 75 C4.43672321 76.52109226 -0.09402506 76.30731567 -4.875 76.375 C-6.36580078 76.43107422 -6.36580078 76.43107422 -7.88671875 76.48828125 C-15.21046195 76.57651912 -15.21046195 76.57651912 -19.15625 73.6953125 C-21.596958 70.12732835 -21.75707251 68.23960606 -21 64 C-18.6875 61.0625 -18.6875 61.0625 -16 59 C-15.01 59 -14.02 59 -13 59 C-13.33 47.78 -13.66 36.56 -14 25 C-15.98 24.01 -17.96 23.02 -20 22 C-21.62879014 18.74241972 -21.66558417 15.51010629 -21 12 C-19.40383882 9.43661916 -17.37169803 7.55985054 -15.125 5.5625 C-14.56941406 5.03462891 -14.01382812 4.50675781 -13.44140625 3.96289062 C-8.53548418 -0.64158323 -6.67622776 -1.49639588 0 0 Z " fill="#373838" transform="translate(431,52)"/>
<path d="M0 0 C3.61442736 1.22754137 4.95273567 2.17926825 7.3125 5.125 C7.79351807 7.69403076 7.79351807 7.69403076 7.76660156 10.62792969 C7.76614838 12.27918854 7.76614838 12.27918854 7.76568604 13.96380615 C7.74504089 15.14621887 7.72439575 16.32863159 7.703125 17.546875 C7.69746521 18.76199768 7.69180542 19.97712036 7.68597412 21.22906494 C7.66357734 25.11144343 7.61337187 28.99290028 7.5625 32.875 C7.5424394 35.50649709 7.52418787 38.13800864 7.5078125 40.76953125 C7.46370153 47.22166881 7.39675519 53.67326856 7.3125 60.125 C8.47845703 60.32029297 8.47845703 60.32029297 9.66796875 60.51953125 C13.05774417 61.29562459 14.27053478 62.32675136 16.3125 65.125 C16.98224422 69.05974728 16.66360528 70.59834208 14.4375 73.9375 C10.65749569 77.82868091 7.41082036 77.35724066 2.20507812 77.45703125 C1.14740234 77.47121094 0.08972656 77.48539062 -1 77.5 C-2.04607422 77.53738281 -3.09214844 77.57476562 -4.16992188 77.61328125 C-11.88888583 77.70172259 -11.88888583 77.70172259 -15.87890625 74.8203125 C-18.27566042 71.24847583 -18.44113135 69.34533555 -17.6875 65.125 C-15.375 62.1875 -15.375 62.1875 -12.6875 60.125 C-11.6975 60.125 -10.7075 60.125 -9.6875 60.125 C-9.6875 48.905 -9.6875 37.685 -9.6875 26.125 C-12.1625 25.135 -12.1625 25.135 -14.6875 24.125 C-16.96529261 21.92575196 -17.6102383 20.46495148 -18.3125 17.375 C-17.34645842 12.35158378 -14.24718557 9.64288887 -10.6875 6.125 C-10.10097656 5.50496094 -9.51445312 4.88492188 -8.91015625 4.24609375 C-5.79444816 1.20103664 -4.48627775 0.15207721 0 0 Z " fill="#373938" transform="translate(222.6875,50.875)"/>
<path d="M0 0 C2.94502938 3.11846771 3.36967703 5.27360466 3.34057617 9.50292969 C3.34034958 10.60376892 3.34012299 11.70460815 3.33988953 12.83880615 C3.32440567 14.02121887 3.30892181 15.20363159 3.29296875 16.421875 C3.28872391 17.63699768 3.28447906 18.85212036 3.28010559 20.10406494 C3.26330876 23.98626839 3.22565338 27.86795336 3.1875 31.75 C3.17245452 34.38150292 3.15876588 37.01301398 3.14648438 39.64453125 C3.11340185 46.09653117 3.06319179 52.54822854 3 59 C4.42699219 59.19529297 4.42699219 59.19529297 5.8828125 59.39453125 C9 60 9 60 10.875 61.6875 C12.36633241 64.75301662 12.48231822 66.62377244 12 70 C10.20006226 72.69990662 8.916227 74.5418865 6 76 C2.40235402 76.29382599 -1.20425394 76.27796031 -4.8125 76.3125 C-5.81087891 76.34150391 -6.80925781 76.37050781 -7.83789062 76.40039062 C-15.23107012 76.46442216 -15.23107012 76.46442216 -19.13671875 74.10546875 C-21.35151502 71.6027954 -21.93227262 70.50795536 -22.375 67.1875 C-21.8755044 62.9417874 -20.29527509 61.60556635 -17 59 C-16.01 59 -15.02 59 -14 59 C-14 47.45 -14 35.9 -14 24 C-15.65 23.67 -17.3 23.34 -19 23 C-21.59694935 20.67170059 -21.9699393 19.22133188 -22.44140625 15.75 C-21.84731392 10.70284393 -19.77763041 8.92657669 -16.125 5.625 C-15.56941406 5.09261719 -15.01382813 4.56023437 -14.44140625 4.01171875 C-9.70971542 -0.46913546 -6.48023671 -2.11730506 0 0 Z " fill="#373938" transform="translate(227,257)"/>
<path d="M0 0 C3.61442736 1.22754137 4.95273567 2.17926825 7.3125 5.125 C7.79351807 7.69403076 7.79351807 7.69403076 7.76660156 10.62792969 C7.76614838 12.27918854 7.76614838 12.27918854 7.76568604 13.96380615 C7.74504089 15.14621887 7.72439575 16.32863159 7.703125 17.546875 C7.69746521 18.76199768 7.69180542 19.97712036 7.68597412 21.22906494 C7.66357734 25.11144343 7.61337187 28.99290028 7.5625 32.875 C7.5424394 35.50649709 7.52418787 38.13800864 7.5078125 40.76953125 C7.46370153 47.22166881 7.39675519 53.67326856 7.3125 60.125 C8.47845703 60.32029297 8.47845703 60.32029297 9.66796875 60.51953125 C13.05774417 61.29562459 14.27053478 62.32675136 16.3125 65.125 C16.98224422 69.05974728 16.66360528 70.59834208 14.4375 73.9375 C10.63770228 77.84905648 7.38510702 77.33169949 2.15625 77.40820312 C1.0940625 77.41787109 0.031875 77.42753906 -1.0625 77.4375 C-2.64417969 77.48100586 -2.64417969 77.48100586 -4.2578125 77.52539062 C-5.27359375 77.53376953 -6.289375 77.54214844 -7.3359375 77.55078125 C-8.26583496 77.56536377 -9.19573242 77.57994629 -10.15380859 77.5949707 C-13.44175604 76.98509415 -14.59301119 75.66839239 -16.6875 73.125 C-18.13180855 70.23638291 -18.06438506 68.32852299 -17.6875 65.125 C-15.375 62.25 -15.375 62.25 -12.6875 60.125 C-11.6975 60.125 -10.7075 60.125 -9.6875 60.125 C-9.6875 48.905 -9.6875 37.685 -9.6875 26.125 C-12.1625 25.135 -12.1625 25.135 -14.6875 24.125 C-16.96529261 21.92575196 -17.6102383 20.46495148 -18.3125 17.375 C-17.34645842 12.35158378 -14.24718557 9.64288887 -10.6875 6.125 C-10.10097656 5.50496094 -9.51445312 4.88492188 -8.91015625 4.24609375 C-5.79444816 1.20103664 -4.48627775 0.15207721 0 0 Z " fill="#373938" transform="translate(367.6875,50.875)"/>
<path d="M0 0 C2.70674997 2.06078962 3.85759061 3.22817762 4.48101807 6.60699463 C4.47213562 7.59294617 4.46325317 8.57889771 4.45410156 9.59472656 C4.45364838 11.27601654 4.45364838 11.27601654 4.45318604 12.99127197 C4.43254089 14.19555847 4.41189575 15.39984497 4.390625 16.640625 C4.38496521 17.87794373 4.37930542 19.11526245 4.37347412 20.39007568 C4.35488251 23.67177936 4.31897498 26.95269281 4.2746582 30.23413086 C4.23366165 33.58570067 4.21579501 36.93730444 4.1953125 40.2890625 C4.15119904 46.85968391 4.08425077 53.42977732 4 60 C4.77601562 59.95746094 5.55203125 59.91492188 6.3515625 59.87109375 C9 60 9 60 11.375 62.0625 C13 65 13 65 13 68.5625 C11.89598028 72.35756778 11.05299632 73.57806451 8 76 C3.87237642 76.81989614 -0.30000588 76.60283893 -4.5 76.5625 C-5.64082031 76.58634766 -6.78164062 76.61019531 -7.95703125 76.63476562 C-16.26589486 76.62012015 -16.26589486 76.62012015 -19.7421875 73.68359375 C-21.43347622 70.07516099 -21.70307439 67.9372166 -21 64 C-19.17308434 61.77762393 -17.4536942 60.61943817 -15 59 C-14.34 59 -13.68 59 -13 59 C-13 47.78 -13 36.56 -13 25 C-14.65 24.67 -16.3 24.34 -18 24 C-20.55716855 21.70736613 -20.97401823 20.1351052 -21.625 16.75 C-20.72346011 11.34076065 -17.84645383 8.72942177 -14 5 C-13.24783203 4.19949219 -13.24783203 4.19949219 -12.48046875 3.3828125 C-8.38608657 -0.61005607 -5.41127063 -0.78550703 0 0 Z " fill="#373938" transform="translate(81,154)"/>
<path d="M0 0 C2.68432617 1.77026367 2.68432617 1.77026367 5 5 C5.70008545 9.10307736 5.58101235 13.14912393 5.48828125 17.30078125 C5.48120651 18.49229294 5.47413177 19.68380463 5.46684265 20.91142273 C5.43888186 24.71242372 5.37613474 28.51194514 5.3125 32.3125 C5.28741956 34.89125475 5.26460596 37.47003262 5.24414062 40.04882812 C5.18904931 46.36638918 5.10540375 52.68308888 5 59 C5.95003906 59.29519531 6.90007812 59.59039062 7.87890625 59.89453125 C11 61 11 61 12.9375 62.6875 C14.52552745 66.14379504 13.96991804 68.37897265 13 72 C10.88997082 74.7108182 9.72281086 75.86069463 6.31445312 76.51757812 C5.31349609 76.52208984 4.31253906 76.52660156 3.28125 76.53125 C2.18425781 76.53640625 1.08726562 76.5415625 -0.04296875 76.546875 C-1.18378906 76.53140625 -2.32460938 76.5159375 -3.5 76.5 C-5.21123047 76.52320313 -5.21123047 76.52320313 -6.95703125 76.546875 C-8.05402344 76.54171875 -9.15101563 76.5365625 -10.28125 76.53125 C-11.78268555 76.52448242 -11.78268555 76.52448242 -13.31445312 76.51757812 C-16.73261807 75.85880452 -17.91273007 74.74666298 -20 72 C-20.79894258 66.96666177 -20.79894258 66.96666177 -20 64 C-18.18541232 61.69303945 -16.53200512 60.62048328 -14 59 C-13.34 59 -12.68 59 -12 59 C-12 47.78 -12 36.56 -12 25 C-13.65 24.67 -15.3 24.34 -17 24 C-19.55716855 21.70736613 -19.97401823 20.1351052 -20.625 16.75 C-19.72401213 11.34407278 -16.84883423 8.72417563 -13 5 C-12.23042969 4.19949219 -12.23042969 4.19949219 -11.4453125 3.3828125 C-7.75303716 -0.14979688 -4.99464208 -0.90811674 0 0 Z " fill="#373838" transform="translate(430,154)"/>
<path d="M0 0 C2.66614617 2.05071697 3.84653866 3.24034562 4.51898193 6.56903076 C4.52786438 7.53721741 4.53674683 8.50540405 4.54589844 9.50292969 C4.56561707 10.60376892 4.58533569 11.70460815 4.60565186 12.83880615 C4.60688049 14.02121887 4.60810913 15.20363159 4.609375 16.421875 C4.63417938 18.24455902 4.63417938 18.24455902 4.65948486 20.10406494 C4.70807963 23.98609413 4.7293624 27.86773123 4.75 31.75 C4.7781499 34.38153026 4.80807593 37.01304217 4.83984375 39.64453125 C4.91384196 46.09628272 4.96541722 52.5479234 5 59 C5.78761719 59.29390625 6.57523437 59.5878125 7.38671875 59.890625 C10.43690169 61.18547097 11.46008202 62.08226066 13 65 C13.65189044 68.82985631 13.39479235 70.41214033 11.21875 73.65234375 C6.35535421 77.19955355 1.86763519 76.73002927 -4 76.625 C-5.62035156 76.65400391 -5.62035156 76.65400391 -7.2734375 76.68359375 C-15.1221312 76.63514502 -15.1221312 76.63514502 -19.20703125 73.6796875 C-21.60566439 70.09480224 -21.83036868 68.22733146 -21 64 C-19.16957203 61.78011927 -17.45437858 60.61988986 -15 59 C-14.34 59 -13.68 59 -13 59 C-13 47.78 -13 36.56 -13 25 C-14.65 24.67 -16.3 24.34 -18 24 C-20.58107265 21.68593487 -20.96767802 20.23131295 -21.44921875 16.78515625 C-20.83576465 11.61613862 -18.6499525 9.57144992 -15 6.0625 C-14.44699219 5.47404297 -13.89398438 4.88558594 -13.32421875 4.27929688 C-8.9504119 -0.0492637 -6.12099891 -1.00971396 0 0 Z " fill="#373938" transform="translate(371,154)"/>
<path d="M0 0 C4.521221 2.27968738 6.29516323 4.43824292 8.1015625 9.30859375 C8.55318291 13.14920911 8.56592637 16.94508124 8.5390625 20.80859375 C8.5690332 22.33806641 8.5690332 22.33806641 8.59960938 23.8984375 C8.59561901 30.03562295 8.19960949 33.64968267 4.1015625 38.30859375 C1.43360077 40.728373 -0.46588348 42.18204304 -4.109375 42.50390625 C-8.33808953 42.2650752 -10.45089651 41.66091325 -13.8359375 38.99609375 C-18.50649687 32.91021335 -18.26452735 27.92703135 -18.2734375 20.43359375 C-18.29792969 19.35722656 -18.32242187 18.28085937 -18.34765625 17.171875 C-18.37085393 10.90076849 -18.15637256 7.04486037 -13.8984375 2.30859375 C-9.61545651 -1.16409354 -5.26816842 -1.91865393 0 0 Z " fill="#3AC9A8" transform="translate(435.8984375,273.69140625)"/>
<path d="M0 0 C4.09169965 2.4376083 5.53297669 4.55195641 7 9 C7.43121635 12.97117647 7.37021584 16.94511996 7.375 20.9375 C7.39949219 22.00935547 7.42398437 23.08121094 7.44921875 24.18554688 C7.47246505 30.44267484 7.24330103 34.27219682 3 39 C0.07327328 41.37302167 -1.68309204 41.95966626 -5.4375 42.4375 C-10.37121891 41.83160469 -13.28090009 39.84225778 -16.64257812 36.23974609 C-19.42262341 31.65267137 -18.51095593 25.84002445 -18.5 20.625 C-18.52835937 19.40554687 -18.55671875 18.18609375 -18.5859375 16.9296875 C-18.60778748 6.92239818 -18.60778748 6.92239818 -15.71875 3.2734375 C-10.3394238 -1.22479217 -6.76673854 -1.66751771 0 0 Z " fill="#3ACBA9" transform="translate(300,69)"/>
<path d="M0 0 C4.09144642 2.43745744 5.52971735 4.55365551 7 9 C7.40452151 12.80537878 7.32449006 16.61267235 7.3125 20.4375 C7.32861328 21.46166016 7.34472656 22.48582031 7.36132812 23.54101562 C7.36553032 30.03340496 6.88237069 34.78504808 2.375 39.8125 C-1.3157073 41.65785365 -4.8820739 42.24307203 -9 42 C-13.0066316 39.9966842 -15.66919375 37.80727484 -18 34 C-18.68137921 29.58840364 -18.55544888 25.14616013 -18.5625 20.6875 C-18.59923828 19.47642578 -18.63597656 18.26535156 -18.67382812 17.01757812 C-18.72299944 7.03580201 -18.72299944 7.03580201 -15.15234375 2.70703125 C-10.64418987 -1.78004664 -5.85477088 -1.32735579 0 0 Z " fill="#3ACBA9" transform="translate(155,274)"/>
<path d="M0 0 C4.80569446 0.83908951 6.00781194 1.83869412 8.9375 5.6875 C9.6327469 8.64567795 9.59240837 11.50383574 9.53125 14.53125 C9.53129028 15.37796265 9.53133057 16.22467529 9.53137207 17.0970459 C9.52602473 18.88231859 9.50847543 20.6675913 9.47949219 22.45263672 C9.43763366 25.17879495 9.43842635 27.90248074 9.4453125 30.62890625 C9.43481911 32.36720459 9.4218802 34.10549025 9.40625 35.84375 C9.40604858 36.65533569 9.40584717 37.46692139 9.40563965 38.30310059 C9.3099366 42.89999649 8.91726827 45.96366709 5.9375 49.6875 C2.41925489 52.03299674 1.07974306 52.26741403 -3.0625 51.6875 C-5.73828125 49.8359375 -5.73828125 49.8359375 -8.0625 46.6875 C-8.67235045 43.06298029 -8.53486906 39.53723117 -8.375 35.875 C-8.35244141 34.89595703 -8.32988281 33.91691406 -8.30664062 32.90820312 C-8.24789727 30.49972545 -8.16582129 28.09440922 -8.0625 25.6875 C-9.24585938 25.47480469 -9.24585938 25.47480469 -10.453125 25.2578125 C-13.45279248 24.60219655 -14.36773348 24.22964978 -16.0625 21.6875 C-17.1875 18.5 -17.1875 18.5 -17.0625 14.6875 C-15.10787519 11.62860075 -12.63784707 9.22693586 -10.0625 6.6875 C-9.55976563 6.08035156 -9.05703125 5.47320312 -8.5390625 4.84765625 C-5.95691995 1.8161353 -3.93578343 0.2727041 0 0 Z " fill="#373A39" transform="translate(307.0625,153.3125)"/>
<path d="M0 0 C3.57137858 2.20361657 5.44191947 4.14348352 7 8 C7.42319252 11.94753981 7.32429516 15.90710675 7.3125 19.875 C7.32861328 20.95136719 7.34472656 22.02773437 7.36132812 23.13671875 C7.36542471 29.78137838 6.9916128 34.66320111 2.375 39.8125 C-1.3157073 41.65785365 -4.8820739 42.24307203 -9 42 C-13.00488424 39.99755788 -15.67412508 37.8090777 -18 34 C-18.65615096 29.56640323 -18.50940543 25.10198251 -18.5 20.625 C-18.52835938 19.40554687 -18.55671875 18.18609375 -18.5859375 16.9296875 C-18.60778748 6.92239818 -18.60778748 6.92239818 -15.71875 3.2734375 C-10.34595483 -1.21933087 -6.76064914 -1.6780897 0 0 Z " fill="#3ACBA9" transform="translate(155,69)"/>
<path d="M0 0 C3.8026029 2.0050088 5.61790841 3.42686262 8 7 C8.47168646 11.42235781 8.37036279 15.8677329 8.375 20.3125 C8.39949219 21.53646484 8.42398438 22.76042969 8.44921875 24.02148438 C8.48643084 35.42698892 8.48643084 35.42698892 4 40 C0.58135332 42.31955514 -2.62531874 42.53067602 -6.67578125 42.45703125 C-10.72458526 41.66087987 -13.43498094 39.13756796 -16 36 C-17.65198431 31.04404706 -17.35207444 25.94033915 -17.4375 20.75 C-17.48326172 19.62980469 -17.52902344 18.50960937 -17.57617188 17.35546875 C-17.64996136 11.9207127 -17.69513352 8.04890898 -14.09765625 3.765625 C-9.83180602 -0.44637495 -5.82902073 -0.72495384 0 0 Z " fill="#3ACBA9" transform="translate(239,171)"/>
<path d="M0 0 C4.1971017 1.77210961 6.67303899 4.10089798 9 8 C9.57841906 12.17339854 9.51200979 16.29380203 9.4375 20.5 C9.44458984 21.62792969 9.45167969 22.75585938 9.45898438 23.91796875 C9.40778003 30.57453356 8.94895022 34.55955808 4.5 39.75 C1.19544716 42.50379404 -2.68885433 42.3316919 -6.77734375 42.28515625 C-10.127774 41.85531195 -11.75527284 40.44879327 -14 38 C-17.29083817 32.77802432 -16.36876598 26.51910542 -16.375 20.5625 C-16.39949219 19.33466797 -16.42398438 18.10683594 -16.44921875 16.84179688 C-16.45308594 15.65779297 -16.45695313 14.47378906 -16.4609375 13.25390625 C-16.46915527 12.17439697 -16.47737305 11.0948877 -16.48583984 9.98266602 C-15.88308114 6.28221218 -14.58148059 4.67169519 -12 2 C-7.95154115 -0.69897256 -4.75041428 -0.53620196 0 0 Z " fill="#3ACBA9" transform="translate(153,171)"/>
<path d="M0 0 C0.66 0.33 1.32 0.66 2 1 C0.73046875 2.49739583 -0.5390625 3.99479167 -1.80859375 5.4921875 C-3.0878152 7.00594079 -3.0878152 7.00594079 -4 9 C-4.66 8.67 -5.32 8.34 -6 8 C-3.375 2.25 -3.375 2.25 0 0 Z " fill="#3D4C4B" transform="translate(361,294)"/>
</svg>
